<?xml version="1.0" standalone="no"?>
<!DOCTYPE svg PUBLIC "-//W3C//DTD SVG 20010904//EN"
 "http://www.w3.org/TR/2001/REC-SVG-20010904/DTD/svg10.dtd">
<svg version="1.0" xmlns="http://www.w3.org/2000/svg"
 width="128.000000pt" height="128.000000pt" viewBox="0 0 128.000000 128.000000"
 preserveAspectRatio="xMidYMid meet">
<metadata>
Created by potrace 1.11, written by Peter Selinger 2001-2013
</metadata>
<g transform="translate(0.000000,128.000000) scale(0.100000,-0.100000)"
fill="#000000" stroke="none">
<path d="M947 1146 c67 -85 41 -241 -64 -390 l-35 -48 25 -57 c79 -179 49
-343 -87 -474 -39 -37 -116 -90 -122 -84 -8 8 -12 217 -4 217 5 0 19 -13 32
-28 41 -48 47 -44 17 12 l-30 54 43 7 c24 4 56 9 73 11 47 8 41 12 -32 19 -37
4 -71 9 -75 12 -4 2 -1 21 8 41 17 40 34 92 30 92 -1 0 -17 -23 -35 -51 -18
-27 -35 -49 -37 -47 -3 4 -15 369 -18 560 -2 122 -13 100 -15 -29 -2 -169 -13
-528 -15 -531 -2 -1 -18 20 -37 47 -18 28 -35 49 -36 47 -2 -1 8 -30 21 -64
14 -34 24 -62 23 -63 -7 -3 -50 -9 -91 -14 -64 -7 -67 -11 -14 -20 24 -3 58
-9 76 -12 l32 -5 -31 -54 c-35 -62 -31 -69 12 -19 17 19 34 35 38 35 8 0 4
-210 -3 -218 -8 -7 -101 61 -144 107 -23 25 -57 74 -75 110 -29 60 -32 74 -31
156 0 76 5 102 31 168 l31 77 -43 65 c-86 127 -111 253 -70 340 l22 44 -28
-20 c-58 -41 -125 -148 -149 -239 -27 -99 -9 -231 46 -345 l24 -50 -29 33
c-68 78 -118 218 -107 296 l6 41 -15 -32 c-21 -48 -29 -107 -29 -203 0 -102
21 -171 75 -254 34 -51 28 -61 -8 -16 -7 8 -13 11 -13 6 0 -19 93 -137 146
-184 241 -215 605 -202 828 31 52 55 110 139 126 184 11 31 13 32 -42 -44 -13
-18 -27 -33 -32 -33 -4 0 3 15 16 33 89 116 121 281 83 428 -23 89 -33 101
-30 38 1 -30 -2 -72 -7 -94 -13 -56 -62 -154 -98 -195 l-31 -35 26 52 c53 110
69 235 44 338 -23 95 -95 209 -162 257 l-32 23 22 -29z"/>
</g>
</svg>
